<?xml version="1.0" encoding="utf-8"?>
<!-- Generator: Adobe Illustrator 17.0.0, SVG Export Plug-In . SVG Version: 6.00 Build 0)  -->
<!DOCTYPE svg PUBLIC "-//W3C//DTD SVG 1.1//EN" "http://www.w3.org/Graphics/SVG/1.1/DTD/svg11.dtd">
<svg version="1.1" id="Layer_1" xmlns="http://www.w3.org/2000/svg" xmlns:xlink="http://www.w3.org/1999/xlink" x="0px" y="0px"
	 width="100px" height="100px" viewBox="0 0 100 100" enable-background="new 0 0 100 100" xml:space="preserve">
<g opacity="0.7">
	<path fill="#FFFFFF" d="M1,40.995c3.479-1.175,1.662-5.251,3.893-7.11c0.202,0.183,0.404,0.365,0.609,0.546
		c1.528,4.321-0.861,7.891-2.239,11.657C2.489,46.561,1.731,46.593,1,45.994C1,44.328,1,42.661,1,40.995z"/>
	<path fill="#FFFFFF" d="M1,56.993c0-2.666,0-5.333,0-7.999c0.617-0.597,1.287-0.545,1.987-0.164
		c0.362,0.341,0.642,0.739,0.835,1.198c0.159,0.467,0.258,0.947,0.317,1.437c0.093,1.708,0.163,3.418-0.147,5.118
		c-0.132,0.48-0.353,0.917-0.651,1.316C2.125,58.724,1.597,57.77,1,56.993z"/>
	<path fill="#FFFFFF" d="M1,56.993c0.654,0.344,1.308,0.688,1.962,1.033c1.362,1.013,1.667,2.551,2.037,4.063
		c0.19,1.338,0.163,2.641-0.641,3.812c-0.432,0.424-0.905,0.472-1.416,0.147l0.001,0.001C1.504,64.667,2.441,62.373,1,60.992
		C1,59.659,1,58.326,1,56.993z"/>
	<path fill="#FFFFFF" d="M2.983,48.971C2.322,48.978,1.661,48.986,1,48.994c0-1,0-2,0-3c0.656-0.008,1.312-0.016,1.968-0.025
		c0.532,0.357,0.718,0.89,0.763,1.496c-0.02,0.395-0.123,0.77-0.301,1.123C3.282,48.717,3.132,48.844,2.983,48.971z"/>
	<path fill="#FFFFFF" d="M34.975,4.988c0.33-0.02,0.659-0.026,0.989-0.021c3.578-0.883,5.953,0.042,6.219,4.139
		c-4.55,3.365-9.209,6.108-14.943,2.549c-0.643-0.658-0.608-1.397-0.255-2.166c0.262-0.419,0.61-0.765,1.026-1.034
		c1.222-0.56,2.484-0.509,3.684,0.012c2.575,1.119,2.537-0.642,2.62-2.307C34.437,5.713,34.664,5.326,34.975,4.988z"/>
	<path fill="#FFFFFF" d="M46.973,7.973c7.387,0.761,14.898,0.593,22.071,2.951c0-0.001-0.06,0.088-0.06,0.088
		c0.742,0.6,1.77,1.096,0.842,2.307c-0.686,0.369-1.407,0.408-2.152,0.239c-4.026-1.456-8.011-2.956-12.451-1.692
		c-2.605,0.741-4.666-1.276-7.044-1.788C47.715,9.894,47.304,9.627,46.93,9.3C46.631,8.848,46.661,8.406,46.973,7.973z"/>
	<path fill="#FFFFFF" d="M46.973,7.973c0.002,0.294-0.006,0.588-0.025,0.882c-1.606,1.623-3.262,1.57-4.959,0.15
		c-1.027-2.81-3.059-4.12-6.025-4.038c2.496-1.873,4.764-1.276,6.357,1.075C43.563,7.875,45.092,8.135,46.973,7.973z"/>
	<path fill="#FFFFFF" d="M22.987,84.011c-1.526-0.519-3.5-3.948-4.17,0.8c-0.324,2.296-2.019,1.685-3.349,0.85
		c-1.233-0.774-2.339-1.752-3.501-2.64c-0.369-0.635-0.738-1.27-1.107-1.905c0.155-0.163,0.31-0.326,0.465-0.491
		c3.081,1.013,4.921-2.678,7.897-2.093c1.612,0.978,3.71,1.334,4.435,3.451C23.752,82.764,23.588,83.46,22.987,84.011z"/>
	<path fill="#FFFFFF" d="M2.941,66.048c0.357-0.023,0.714-0.046,1.071-0.069c0.846,0.444,1.3,1.224,1.745,2.016
		c0.966,2.284,2.255,4.484,1.939,7.12c-0.159,0.444-0.441,0.79-0.841,1.041C4.749,73.097,3.222,69.814,2.941,66.048z"/>
	<path fill="#FFFFFF" d="M10.859,81.115c-1.691-1.366-3.461-2.667-4.003-4.96c0.178-0.202,0.356-0.406,0.535-0.609
		c0.466-0.003,0.897,0.122,1.301,0.352c1.117,0.822,2.121,1.749,2.761,3.012c0.213,0.7,0.145,1.355-0.318,1.945L10.859,81.115z"/>
	<path fill="#FFFFFF" d="M6.995,27.994c0.333-0.335,0.666-0.67,0.998-1.004c0.592,0.504,0.785,1.17,0.791,1.917
		c-0.296,1.933-1.114,3.622-2.392,5.097c-0.421,0.286-0.859,0.31-1.311,0.077c0,0-0.186-0.192-0.187-0.193
		C4.854,31.658,6.17,29.913,6.995,27.994z"/>
	<path fill="#FFFFFF" d="M5.081,34.08c0.279-0.063,0.561-0.104,0.847-0.122c0.513-0.346,0.958-0.272,1.335,0.219
		c0.463,2.365-0.041,4.695-0.241,7.039c-1.261,2.303,0.327,6.301-4.009,6.785c-0.015-0.677-0.03-1.354-0.046-2.031
		C2.814,41.854,5.531,38.248,5.081,34.08z"/>
	<path fill="#FFFFFF" d="M4.088,61.956c-0.767-1.198-1.194-2.494-1.125-3.93c0.024-0.349,0.049-0.698,0.074-1.047
		c1.628-1.384,0.409-3.697,1.691-5.198c1.805-1.174,3.574-2.44,5.866-2.449c2.076,1.008,4.527,0.545,6.581,1.652
		c0.174,2.155-1.437,3.043-2.995,3.193c-2.094,0.203-1.409,1.755-1.878,2.761c-1.274,1.388-4.038-0.482-4.722,2.183
		C6.591,60.286,6.196,62.184,4.088,61.956z"/>
	<path fill="#FFFFFF" d="M3.03,50.01c-0.016-0.346-0.031-0.693-0.047-1.039c0,0-0.003,0.011-0.003,0.011
		c1.008-0.763,2.473-1.296,2.442-2.772c-0.087-4.156,1.453-4.478,4.423-2.107c0.5,0.399,1.236,0.277,1.885,0.255
		c1.242-0.001,2.329,0.392,3.237,1.251c0.289,0.422,0.377,0.883,0.27,1.384c-0.3,0.405-0.673,0.724-1.105,0.979
		C10.31,47.98,7.235,52.085,3.03,50.01z"/>
	<path fill="#FFFFFF" d="M3.03,50.01c4.184-0.229,7.691-3.15,11.967-3.016c0.089,2.894-1.766,3.198-3.998,2.999
		c-2.216,0.017-3.572,2.614-5.998,1.998c-0.866,0.087-1.443-0.408-1.981-0.983C3.014,50.676,3.017,50.343,3.03,50.01z"/>
	<path fill="#FFFFFF" d="M3.02,51.009c0.821,0.003,1.553,0.186,1.981,0.983c-0.444,1.745,1.218,4.321-1.966,4.986
		C3.031,54.988,3.026,52.999,3.02,51.009z"/>
	<path fill="#FFFFFF" d="M4.088,61.956c1.166-0.796,1.363-2.543,2.911-2.963c1.61,0.181,2.999,0.902,4.337,1.762
		c1.028,1.29,2.272,2.493,1.789,4.398c-0.362,0.33-0.776,0.572-1.237,0.734c-1.164,0.304-2.34,0.304-3.513,0.111
		c-0.411-0.085-0.81-0.232-1.168-0.42c-0.969-0.907-1.044-0.535-0.671,0.499c0.1,0.276,0.12,0.573,0.118,0.885
		c-0.066,0.455-0.238,0.853-0.517,1.212c-0.441,0.246-0.839,0.18-1.203-0.15c-0.307-0.681-0.613-1.362-0.92-2.043
		C4.037,64.638,4.063,63.297,4.088,61.956z"/>
	<path fill="#FFFFFF" d="M12.001,44.995c-2.376,1.591-2.376,1.591-4.955-1.72c-1.991,1.469-0.048,5.873-4.066,5.707
		c-0.011-0.328,0-0.655,0.034-0.981C6.191,46.594,4.221,42.995,6,40.993c0.802-0.926,1.133-2.422,2.794-2.313
		c1.176,0.527,2.208,1.296,3.303,1.973c0.315,0.335,0.538,0.721,0.694,1.152C13.062,43.001,12.991,44.113,12.001,44.995z"/>
	<path fill="#FFFFFF" d="M14.864,18.784c-0.011-0.284,0.018-0.564,0.086-0.84c1.006-1.262,2.321-1.995,3.901-2.275
		c0.85,0.294,1.755,0.37,2.612,0.64c1.475,0.593,3.256,0.372,4.472,1.664c-4.984,4.458-9.683,9.313-16.164,11.71
		c-0.464-0.164-0.82-0.463-1.066-0.889C9.428,24.642,12.637,22.015,14.864,18.784z"/>
	<path fill="#FFFFFF" d="M14.864,18.784c-1.111,3.889-4.25,6.611-5.871,10.207c-0.314,0.314-0.636,0.307-0.966,0.024
		c-0.012-0.675-0.023-1.35-0.035-2.026C9.839,23.882,11.324,20.473,14.864,18.784z"/>
	<path fill="#FFFFFF" d="M18.954,16.018c-1.334,0.643-2.668,1.285-4.003,1.927c0.055-0.612,0.109-1.223,0.166-1.833
		c2.516-1.143,5.183-1.222,7.875-1.123c0.859-0.61,1.605-0.573,2.187,0.386C23.369,18.159,21.092,16.423,18.954,16.018z"/>
	<path fill="#FFFFFF" d="M81.954,18.048c2.13,2.853,5.037,5.158,6.142,8.732c-0.161,0.151-0.323,0.301-0.485,0.452
		c-1.518-0.007-2.367-1.038-3.21-2.084c-0.909-1.501-2.07-2.789-3.383-3.951c-1.417-1.396-2.885-2.616-4.862-3.272
		c-1.856-0.616-3.761-1.518-3.166-4.153c0.717-0.405,1.369-0.304,1.961,0.252C77.314,15.315,79.978,16.082,81.954,18.048z"/>
	<path fill="#FFFFFF" d="M57.02,92.024c-1.987,0.378-3.975,0.756-5.962,1.135c-0.338-0.048-0.676-0.097-1.015-0.146
		c-5.053,1.607-9.745,1.28-13.78-2.565c-4.594,0.026-8.507-1.796-12.105-4.468c-0.394-0.326-0.775-0.669-1.142-1.027
		c-0.011-0.315-0.021-0.629-0.03-0.944c0.006-0.68,0.012-1.359,0.018-2.039c0.535-0.459,1.268-0.811,1.812-0.423
		c5.704,4.065,13.112,4.195,18.851,8.342c2.464,1.78,5.762,0.833,8.704,0.358c0.501-0.147,1.01-0.232,1.528-0.282
		c1.069-0.079,2.097,0.033,3.006,0.669C57.326,91.065,57.364,91.529,57.02,92.024z"/>
	<path fill="#FFFFFF" d="M23.996,84.99c4.026,1.233,7.206,4.991,11.974,4.013c0.355,0.503,0.306,0.963-0.146,1.381
		c-1.159,0.766-2.464,0.906-3.805,0.892c-1.988-0.502-4.091,1.385-6.025-0.279c-1.099-0.044-2.28,0.158-3.002-1.007
		C21.695,87.996,23.743,86.674,23.996,84.99z"/>
	<path fill="#FFFFFF" d="M31.982,89.999c1.339-0.004,2.677-0.007,4.016-0.011c0.379-0.355,1.171-0.626,1.281-0.366
		c1.68,3.963,5.294,3.957,8.716,4.367c-4.858,2.316-9.399,0.17-14.01-0.995C31.279,91.996,31.148,90.998,31.982,89.999z"/>
	<path fill="#FFFFFF" d="M45.995,93.989c-3.851-0.037-8.074,0.854-9.997-4.001c-0.003-0.329-0.012-0.657-0.027-0.985
		c0.817,0.106,2.168-0.052,2.37,0.357c2.656,5.385,7.569,3.239,11.703,3.654C48.953,94.411,47.39,93.851,45.995,93.989z"/>
	<path fill="#FFFFFF" d="M31.982,89.999c0.001,0.998,0.002,1.996,0.003,2.995c-1.59-1.889-4.889,1.355-5.992-1.996
		C28.101,91.336,29.984,90.322,31.982,89.999z"/>
	<path fill="#FFFFFF" d="M23.996,84.99c-0.335,1.667-0.67,3.333-1.005,5c-3.796-1.698,0.312-3.356,0.026-5.036
		C23.343,84.97,23.67,84.982,23.996,84.99z"/>
	<path fill="#FFFFFF" d="M41.989,9.005c1.653-0.049,3.307-0.098,4.96-0.149c0-0.001,0.099,0.272,0.099,0.272
		c0.229,0.428,0.204,0.833-0.111,1.213c-0.913,0.705-2.02,1.002-3.055,1.458c-0.422,0.191-0.856,0.341-1.295,0.482
		c-2.674,0.802-5.267,1.945-8.129,1.954c-3.341-0.565-4.741,3.603-7.981,3.283c-0.469-0.193-0.763-0.53-0.865-1.03
		c0.786-1.747-0.334-3.976,1.386-5.486C32.465,13.859,37.08,10.324,41.989,9.005z"/>
	<path fill="#FFFFFF" d="M26.999,11.003c-0.001,2.044,0.254,4.133-1.046,5.949c-1.643,0.856-3.297,0.76-4.956,0.053
		c-0.68-0.329-1.361-0.658-2.042-0.987c2.005-0.381,4.292,0.844,6.03-1.058c-0.327-1.319-0.654-2.638-0.98-3.956
		c1.371-0.587,2.262-2.135,3.996-1.996C27.666,9.673,27.332,10.338,26.999,11.003z"/>
	<path fill="#FFFFFF" d="M28.004,9.004c0.431-0.802,1.181-0.97,1.998-1.002c1.311-0.709,2.903-0.862,3.992-2.011
		c0.322-0.007,0.644-0.018,0.966-0.033c1.059,1.563,0.993,3.133-0.367,4.39c-1.405,1.298-2.197-0.354-3.285-0.851
		C30.334,9.053,29.114,9.148,28.004,9.004z"/>
	<path fill="#FFFFFF" d="M46.969,9.986c0.019-0.287,0.045-0.574,0.079-0.859c6.707,2.803,14.656-1.17,20.956,3.845
		c0.249,0.241,0.353,0.5,0.313,0.776c-0.041,0.285-0.097,0.427-0.167,0.428c-0.547,0.472-1.195,0.65-1.9,0.665
		c-0.45-0.016-0.891-0.1-1.322-0.226c-0.819-0.287-1.606-0.665-2.424-0.958c-1.422-0.517-2.889-0.525-4.37-0.365
		c-1.11,0.093-2.156,0.489-3.246,0.675c-1.154,0.182-2.296,0.154-3.419-0.193c-1.086-0.389-1.901-1.17-2.749-1.904
		C48.067,11.308,47.352,10.8,46.969,9.986z"/>
	<path fill="#FFFFFF" d="M67.949,14.053c0.018-0.36,0.036-0.72,0.055-1.08c0.63,0.051,1.259,0.101,1.888,0.153
		c0.774,1.089,1.949,0.87,3.037,0.931c1.857,3.859,7.655,2.533,9.109,6.923c-5.74,1.658-9.264-2.398-13.298-5.15
		C68.162,15.378,67.701,14.871,67.949,14.053z"/>
	<path fill="#FFFFFF" d="M33.993,5.991c-0.748,1.828-2.277,2.104-3.992,2.011C31.015,6.703,32.411,6.162,33.993,5.991z"/>
	<path fill="#FFFFFF" d="M53.019,91.008c-4.187,1.104-8.345,2.957-11.875-1.706c-1.651-2.181-4.815-0.753-7.052-1.827
		c-3.719-1.785-7.393-3.664-11.087-5.504c-1.026-1.418-3.467-0.921-4.022-2.975c2.631-1.927,4.618,0.19,6.805,1.069
		c1.189,0.751,2.305,1.621,3.568,2.261c1.449,0.801,2.963,1.464,4.483,2.118c3.135,1.547,6.279,1.702,9.496,0.215
		c2.084-0.963,4.205-0.925,6.108,0.413c2.06,1.448,2.46,3.049,0.069,4.554c-0.282-0.061-0.485,0.151-0.282,0.377
		c0.442,0.494-0.338-0.029,0.375-0.033C50.923,89.831,52.125,89.923,53.019,91.008z"/>
	<path fill="#FFFFFF" d="M25.988,80.991c-2.485-0.138-4.36-2.418-7.005-1.995c-0.612,0.183-1.643,0.215-1.772,0.573
		c-1.369,3.787-3.653,2.773-6.075,1.288c-0.067-0.597-0.135-1.193-0.203-1.788c0.788-1.205,2.117-1.581,3.308-2.177
		c3.116-1.51,6.211-0.606,9.211,0.293C25.112,77.682,27.129,78.411,25.988,80.991z"/>
	<path fill="#FFFFFF" d="M4.932,68.022c0.356-0.009,0.711-0.019,1.067-0.028c1.657,0.467,1.841,2.083,2.569,3.271
		C8.957,71.9,9.342,72.539,9.94,73c1.042,0.555,1.731-0.481,2.63-0.585c0.735-0.063,1.362,0.135,1.854,0.708
		c0.368,0.71,0.429,1.448,0.264,2.219c-1.869,3.76-4.226,2.089-6.567,0.59c-0.26-0.098-0.505-0.225-0.732-0.384
		C6.572,73.038,5.752,70.53,4.932,68.022z"/>
	<path fill="#FFFFFF" d="M8.121,75.933c1.936-0.463,4.414,2.466,5.88-0.94c0.461-0.541,0.604-1.166,0.41-1.839
		c-0.537-1.857-0.801-3.737,1.303-4.734c1.851-0.877,3.679-0.208,5.012,1.158c1.794,1.839,4.053,2.066,6.351,2.348
		c1.295,0.324,2.635,0.7,3.65,1.531c10.192,8.35,22.001,7.772,34.025,6.392c2.916-0.335,5.963-0.788,8.784,0.714
		c0.714,0.736,0.503,1.377-0.206,1.965c-2.306,1.264-4.976,0.286-7.34,1.195c-0.652,0.349-1.312,0.679-1.98,1.001
		c-0.451,0.233-0.919,0.412-1.401,0.566c-3.046,1.163-6.036,0.943-8.985-0.351c-2.173-0.863-4.545-1.026-6.738-0.848
		c-5.159,0.418-9.603-1.272-13.92-3.698c-0.433-0.208-0.844-0.464-1.235-0.741c-1.886-1.496-3.372-3.726-6.251-3.42
		c-3.866,0.34-8.121-1.895-11.473,1.772c-0.733,1.197-1.983,0.9-3.075,1.064C9.703,78.285,8.533,77.449,8.121,75.933z"/>
	<path fill="#FFFFFF" d="M8.028,29.015c0.322-0.009,0.644-0.017,0.966-0.024c0,0,0.036,0.036,0.036,0.036
		c0.501,0.517,0.768,1.132,0.781,1.857c-0.025,0.467-0.129,0.916-0.288,1.355c-0.612,0.911-0.939,2.244-2.525,1.756
		c-0.356-0.012-0.713-0.025-1.07-0.037C6.628,32.31,7.328,30.663,8.028,29.015z"/>
	<path fill="#FFFFFF" d="M6.998,33.995c0.665-0.67,1.33-1.339,1.995-2.009c0.958,0.804,1.174,1.908,1.254,3.071
		c0.009,1.446-0.04,2.877-1.253,3.934C7.996,39.659,6.998,40.326,6,40.993C6.071,38.623,5.611,36.177,6.998,33.995z"/>
	<path fill="#FFFFFF" d="M13.002,64.99c-0.566-1.382-2.148-2.255-2.002-3.994c-0.315-1.495-0.156-2.872,0.996-4.002
		c-0.351-1.607-0.706-3.206,1.557-3.736c1.418-0.332,2.85-0.668,3.444-2.265c-0.349-0.922,0.22-1.184,0.957-1.33
		c0.713,0.089,1.353,0.365,1.959,0.741c1.023,0.727,1.739,1.623,1.615,2.973c-0.371,1.436-1.406,2.225-2.735,2.63
		c-1.759,0.536-3.599,0.803-3.493,3.38c0.115,2.791,2.27,2.879,4.126,3.441c0.318,0.096,0.636,0.189,0.953,0.294
		c0.778,0.292,1.515,0.683,2.116,1.245c2.534,2.369,4.417,3.25,5.898-1.192c1.112-3.335,3.654-4.564,6.814-1.792
		c-0.008,1.412-1.513,1.62-2.064,2.593c-0.31,3.579-1.091,6.79-5.558,7.122C22.595,69.37,17.505,67.881,13.002,64.99z"/>
	<path fill="#FFFFFF" d="M11.996,56.995c-0.138,1.382,0.466,2.949-0.996,4.002c-1.712,0.087-3.246-0.182-4.002-2.004
		C6.365,52.574,10.114,57.119,11.996,56.995z"/>
	<path fill="#FFFFFF" d="M17.996,49.993c-0.333,0.334-0.666,0.667-1,1.001c-2.14,0.511-4.347,1.422-5.998-1
		c1.459-0.831,3.272-1.191,3.998-2.999c0,0,0-0.002,0-0.002c0.592-0.552,1.288-0.759,2.087-0.637c0.786,0.245,1.3,0.761,1.55,1.545
		C18.758,48.7,18.605,49.416,17.996,49.993z"/>
	<path fill="#FFFFFF" d="M17.001,46.995c-0.668-0.001-1.336-0.002-2.004-0.003c0-0.333-0.001-0.666-0.002-0.999
		c-2.107-1.002-2.047-3.303-2.997-4.998l0,0c-2.583-1.146-2.647-3.386-2.484-5.723c0.02-0.972-0.151-2.011,0.896-2.633
		c0.469-0.141,0.941-0.14,1.408-0.001c0.378,0.285,0.634,0.66,0.767,1.115c-0.539,2.638,0.624,4.642,2.428,6.404
		C16.354,42.241,19.427,43.825,17.001,46.995z"/>
	<path fill="#FFFFFF" d="M11.998,40.995c1.605,1.303,1.994,3.335,2.997,4.998c-0.998-0.333-1.996-0.666-2.994-0.999
		C12,43.661,11.999,42.328,11.998,40.995z"/>
	<path fill="#FFFFFF" d="M13.992,72.991c-0.664,0-1.328-0.001-1.992-0.001c-1.706-2.477-5.701-3.81-3.993-7.992
		c1.33-0.001,2.66-0.002,3.99-0.003c0.824,0.711,1.912,1.144,2.373,2.241C14.013,69.137,14.132,71.073,13.992,72.991z"/>
	<path fill="#FFFFFF" d="M13.998,66.997c-0.95-0.385-1.618-1.052-2-2.003c0.335-0.001,0.67-0.002,1.005-0.003
		c5.499,0.163,9.819,3.861,14.991,5.002c0.452,0.836,2.914,0.218,1.657,2.292c-0.926,0.632-1.909,0.209-2.874,0.161
		C22.085,71.643,18.83,67.47,13.998,66.997z"/>
	<path fill="#FFFFFF" d="M8.007,64.997c-0.288,3.473,4.371,4.474,3.993,7.992c-0.417,2.096-1.334,2.668-2.991,0.981
		c0.55-1.11,0.257-1.792-1.005-1.984c-0.668-1.331-1.337-2.662-2.005-3.992c0,0,0.012-0.027,0.012-0.027
		c0.996-0.767-0.086-2.238,1.005-2.972C7.346,64.994,7.677,64.995,8.007,64.997z"/>
	<path fill="#FFFFFF" d="M7.016,64.995c-0.059,1.084,0.175,2.268-1.006,2.973c-0.2-1.225-0.524-2.451-0.524-3.676
		c0-0.375,0.125-1.845,1.294-1.106C7.109,63.394,6.951,64.371,7.016,64.995z"/>
	<path fill="#FFFFFF" d="M9.993,34.99c-0.417,2.364,0.666,4.228,2.005,6.006c-1.459,0.018-2.907,0.02-3.004-2.004
		c0.001-1.333,0.001-2.666,0.002-3.999C9.327,34.554,9.659,34.532,9.993,34.99z"/>
	<path fill="#FFFFFF" d="M9.001,30.995c0.009-0.656,0.019-1.312,0.029-1.968c1.157-0.032,2.406,0.059,3.24-0.901
		c3.827-4.403,8.519-7.612,13.733-10.121c0.196-0.145,0.392-0.289,0.588-0.434c0.964-0.057,1.95-0.386,2.864,0.224
		c3.435,4.207-0.782,5.459-2.898,7.527c-0.418,0.232-0.871,0.384-1.339,0.479c-6.155-3.059-8.677,2.427-12.327,5.268
		c-0.388,0.279-0.809,0.484-1.261,0.634C10.631,31.923,9.735,31.755,9.001,30.995z"/>
	<path fill="#FFFFFF" d="M20.996,17.005c1.652-0.017,3.305-0.034,4.957-0.052c-0.001-0.001,0.064,0.065,0.064,0.065
		c0.316,0.224,0.419,0.444,0.31,0.662c-0.108,0.216-0.215,0.325-0.323,0.325c0,0-0.001,0-0.001,0.001
		C24.319,17.746,22.4,18.665,20.996,17.005z"/>
	<path fill="#FFFFFF" d="M93.978,34.008c0.781,8.164,4.425,15.921,3.143,24.421c-0.424,2.813-0.463,5.348-2.538,7.74
		c-4.109,4.735-7.784,9.846-11.639,14.802c-1.438,1.763-3.216,2.412-5.418,1.655c-0.439-0.237-0.701-0.609-0.782-1.103
		c0.653-1.985,2.803-2.09,4.1-3.268c0.936-0.868,1.758-1.855,2.741-2.677c0.307-0.305,0.626-0.593,0.939-0.889
		c1.567-2.148,2.984-4.402,4.693-6.443c1.136-2.012,1.517-4.373,2.898-6.269c1.848-2.764,1.588-5.892,1.546-8.982
		c0.179-2.324-0.756-4.458-1.135-6.688c-0.498-1.571-0.833-3.168-0.87-4.821c0.175-2.527-0.673-5.233,1.296-7.445
		C93.293,34.03,93.635,34.019,93.978,34.008z"/>
	<path fill="#FFFFFF" d="M92.951,34.041c0.005,2.641,0.011,5.282,0.016,7.923c-0.508,0.163-0.955,0.06-1.344-0.307
		c-0.617-0.843-0.776-1.828-0.886-2.828c-0.073-2.347-1.312-4.255-2.294-6.278c-0.819-1.687-2.034-3.41-0.563-5.37
		c0,0,0.214-0.4,0.215-0.402C90.688,28.549,90.79,31.983,92.951,34.041z"/>
	<path fill="#FFFFFF" d="M87.88,27.182c-0.134,4.454,4.744,7.167,4.097,11.798c-1.541,2.977,0.068,7.066-3.31,9.402
		c-0.813,0.63-1.665,1.131-2.755,0.781c-0.54-0.575-0.714-1.269-0.661-2.036c0.114-0.714,0.436-1.338,0.854-1.914
		c2.164-2.565,0.279-5.474,0.668-8.188c-0.028-1.514,0.104-3.047-0.613-4.468c-0.645-2.59-2.198-4.909-2.292-7.663
		c0.419-0.306,0.821-0.268,1.207,0.063C86.01,25.699,86.945,26.441,87.88,27.182z"/>
	<path fill="#FFFFFF" d="M85.075,24.957c-0.363,0.014-0.727,0.029-1.09,0.043c-1.451,0.718-2.444-0.544-3.665-0.833
		c-1.229-0.455-2.441-0.953-3.661-1.432c-1.654-0.672-3.505-0.8-5.038-1.811c-1.205-0.8-1.901-1.985-2.477-3.264
		c-0.321-0.865-0.735-1.728-0.17-2.649c4.198,2.331,7.919,5.706,13.063,5.969C83.652,21.846,84.873,23.013,85.075,24.957z"/>
	<path fill="#FFFFFF" d="M74.955,85.857c-0.629,0.081-1.258,0.162-1.886,0.245c-3.346-0.55-5.923,1.209-8.533,2.854
		c-2.326,1.465-4.569,3.128-7.516,3.068c-0.003-0.327,0.002-0.654,0.015-0.98c4.134-3.863,8.397-7.484,14.466-7.73
		c0.483-0.127,0.973-0.183,1.471-0.193c0.775,0.023,1.464,0.249,1.992,0.851C74.961,84.6,74.958,85.228,74.955,85.857z"/>
	<path fill="#FFFFFF" d="M53.992,83.991c3.001,1.211,6.004,1.172,9.01,0.021c-0.846,5.116-4.863,6.12-9.014,6.951
		c-0.323,0.016-0.647,0.032-0.97,0.045c-1.674-0.008-3.348-0.016-5.021-0.024c-0.593-0.664-0.593-1.327,0.001-1.99
		c1.109-0.178,2.905-0.435,2.214-1.746c-1.041-1.975-3.491-2.969-5.47-1.878c-2.279,1.256-4.467,1.74-6.96,1.628
		c-1.872-0.084-3.532-0.518-4.781-2.01c-0.329-0.425-0.333-0.854-0.015-1.288c0.606-0.456,1.299-0.641,2.045-0.662
		c1.224,0.01,2.299,0.515,3.373,1.019c2.139,1.253,3.992-0.609,6.025-0.558C47.615,83.782,50.854,82.916,53.992,83.991z"/>
	<path fill="#FFFFFF" d="M53.988,90.963c3.827-1.25,6.858-3.534,9.014-6.951c0.324-0.02,0.648-0.033,0.972-0.039
		c2.675-1.16,5.348-1.656,8.017,0.017c-5.929,0.351-9.695,5.288-14.957,7.053C56.02,91.016,55.004,90.989,53.988,90.963z"/>
	<path fill="#FFFFFF" d="M48.998,10.993c0.666,0.668,1.332,1.336,1.999,2.004c0.242,0.211,0.352,0.445,0.331,0.703
		c-0.022,0.27-0.066,0.405-0.127,0.403c-0.223,0.897-2.01,0.077-1.669,1.556c3.762,1.232,6.877,3.087,7.635,7.375
		c-0.357,0.336-0.77,0.562-1.248,0.672c-2.352,0.209-3.232-1.856-4.699-3.017c-4.22-1.892-7.874-4.844-12.237-6.466
		c-0.147-2.918,3.289-1.391,4.013-3.233c0.295-0.063,0.593-0.081,0.893-0.053C45.598,10.307,47.303,10.228,48.998,10.993z"/>
	<path fill="#FFFFFF" d="M26.004,18.004c-0.004-0.329,0-0.658,0.013-0.987c3.291-0.087,4.255-4.837,8.009-3.997
		c0.119,0.196,0.238,0.392,0.359,0.587c-0.111,0.452-0.332,0.843-0.654,1.177c-1.728,0.845-2.27,3.451-4.735,3.214
		C27.998,18,27.001,18.002,26.004,18.004z"/>
	<path fill="#FFFFFF" d="M33.986,13.989c0.009-0.323,0.022-0.646,0.039-0.969c3.214,0.312,5.934-1.556,8.969-2.03
		c-0.506,2.103-2.996,1.567-4,3.009c-0.35,0.422-0.787,0.714-1.309,0.882C36.313,15.168,35.014,15.139,33.986,13.989z"/>
	<path fill="#FFFFFF" d="M48.998,10.993c-1.703-0.018-3.406-0.037-5.11-0.056c0.81-1.018,1.962-0.932,3.081-0.952
		C47.791,10.028,48.555,10.186,48.998,10.993z"/>
	<path fill="#FFFFFF" d="M50.992,14.003c0.002-0.335,0.003-0.67,0.005-1.005c1.334,0.001,2.667,0.002,4.001,0.003
		c1.328,3.44,5.902,3.309,7.332,6.657c0.014,4.531-0.777,5.024-5.313,3.325c-2.189-3.394-5.189-5.734-9.044-6.963
		C48.587,14.761,50.151,14.923,50.992,14.003z"/>
	<path fill="#FFFFFF" d="M57.017,22.982c2.352-0.302,6.588,1.276,3.972-3.981c-0.709-1.051-1.403-2.116-2.495-2.836
		c-0.916-0.845-1.32-1.829-0.849-3.058c0.331-0.355,0.735-0.556,1.222-0.582c1.384,0.151,2.847-0.418,4.15,0.459
		c0.821,0.02,1.558,0.207,1.984,1.007c-1.404,1.184-2.006,2.493-0.627,4.107c0.557,0.881,1.354,1.363,2.346,1.647
		c1.877,0.537,3.481,1.459,2.762,3.781c-0.668,2.158-2.454,2.367-4.396,2c-0.807-0.152-1.627-0.144-2.443-0.16
		c-1.223-0.035-2.432,0.282-3.661,0.163c-1.287-0.497-3.152-0.316-3.002-2.523C56.325,22.998,56.671,22.99,57.017,22.982z"/>
	<path fill="#FFFFFF" d="M62.992,17.997c-2.42-2.884-2.074-4.381,2.008-4.006c0.325,0.021,0.651,0.034,0.977,0.038
		c1.425,1.033,3.001,1.924,3.542,3.788C68.132,21.499,66.393,21.546,62.992,17.997z"/>
	<path fill="#FFFFFF" d="M58.992,15.995c1.324,0.565,2,1.56,1.997,3.006c-1.554-0.791-3.064-1.689-4.672-2.347
		c-1.898-0.775-2.505-1.847-1.319-3.654c0.998-0.335,1.996-0.67,2.993-1.005c0.329,0.222,0.439,0.445,0.33,0.668
		c-0.109,0.223-0.218,0.334-0.329,0.334l0,0C56.665,14.551,57.942,15.235,58.992,15.995z"/>
	<path fill="#FFFFFF" d="M68.985,17.002c-1.336-0.654-2.325-1.659-3.008-2.973c0.657,0.008,1.315,0.016,1.972,0.024
		c0.341,0.32,0.683,0.64,1.025,0.959c0.339,0.662,0.679,1.324,1.018,1.986C69.659,17.488,69.323,17.465,68.985,17.002z"/>
	<path fill="#FFFFFF" d="M57.992,12.998c0-0.334-0.001-0.668-0.001-1.002c1.697,0.22,3.607-0.643,5.026,0.989
		C61.342,12.989,59.667,12.993,57.992,12.998z"/>
	<path fill="#FFFFFF" d="M34.996,83.987c-0.665,0-1.33,0-1.994,0c-1.506,0.352-2.703-0.535-4.005-0.998
		c-1.437-0.011-2.433-0.688-3.008-1.998c-3.034-4.846-7.571-3.664-11.981-2.987c2.828-5.655,7.953-2.17,11.99-3.014
		c2.487,0.603,3.945,2.75,6.002,3.998l0-0.001C33.116,80.582,35.594,81.362,34.996,83.987z"/>
	<path fill="#FFFFFF" d="M47.998,88.994c0,0.663-0.001,1.327-0.001,1.99c-0.925-0.23-2.583,0.497-2.415-1.22
		C45.681,88.748,47.108,89.073,47.998,88.994z"/>
	<path fill="#FFFFFF" d="M28.996,82.989c1.458-0.163,2.754,0.33,4.005,0.998c0,0.334,0,0.668-0.001,1.002
		C31.413,84.829,30.014,84.291,28.996,82.989z"/>
	<path fill="#FFFFFF" d="M13.998,66.997c5.478-1.314,8.597,3.508,12.998,4.995c0.34,0.22,0.453,0.44,0.341,0.662
		c-0.112,0.221-0.225,0.332-0.339,0.332c-2.284,0.011-4.604,0.313-6.344-1.799c-1.041-1.264-2.298-2.571-4.174-2.034
		c-2.27,0.649-1.119,2.748-1.562,4.183c-0.182,0.591-0.604,1.107-0.917,1.658c-0.003-0.667-0.006-1.335-0.009-2.002
		C12.752,70.992,12.737,68.994,13.998,66.997z"/>
	<path fill="#FFFFFF" d="M8.004,71.987c0.167-0.773,0.438-2.051,1.338-1.351c1.167,0.909,0.886,2.321-0.333,3.335
		C8.674,73.309,8.339,72.648,8.004,71.987z"/>
	<path fill="#FFFFFF" d="M26.998,72.986c-0.001-0.331-0.001-0.662-0.002-0.993c1,0,2,0,2.999,0c0.235-0.004,0.47-0.008,0.705-0.014
		c4.213,2.292,8.432,4.569,13.04,6.007c1.43,0.446,2.981,1.18,4.284,0.145c1.63-1.294,0.178-2.737-0.296-4.03
		c-0.824-2.248-1.206-4.48-0.439-6.814c0.31-0.687,0.803-1.199,1.468-1.549c1.002-0.306,1.891,0.086,2.787,0.441
		c2.314,1.209,5.221-0.139,7.392,1.697c0.261,0.435,0.282,0.882,0.067,1.342c-0.562,0.482-1.23,0.714-1.945,0.838
		c-0.686,0.124-1.382,0.198-2.071,0.301c-1.838,0.364-3.041,1.287-2.322,3.311c0.812,2.287,2.786,1.604,4.496,1.466
		c0.723,0.021,1.384,0.213,1.935,0.702c-0.083,1.796,0.081,3.169,2.569,2.949c6.103-0.54,12.305-0.638,16.349-6.422
		c0.657-0.94,1.552-1.762,2.907-1.571c1.761,3.677-1.607,5.399-2.991,7.88c-0.899,1.031-2.038,1.716-3.289,2.238
		c-0.218,0.029-0.437,0.052-0.656,0.075c-8.483,0.33-16.968,0.923-25.45,0.893c-5.304-0.018-10.474-1.606-14.792-4.829
		C31.596,75.447,29.321,74.215,26.998,72.986z"/>
	<path fill="#FFFFFF" d="M34.996,83.987c-0.707-1.842-3.104-2.67-2.998-4.999c6.764,4.161,14.627,3.492,21.994,5.003
		c-3.665,0.001-7.33,0.001-10.994,0.002c-1.55,0.925-3.024,2.233-5.005,0.999C36.994,84.656,35.995,84.321,34.996,83.987z"/>
	<path fill="#FFFFFF" d="M74.964,83.971c-0.671-0.006-1.341-0.011-2.012-0.017c-0.301-0.267-0.475-0.601-0.522-1.001
		c0.077-0.399,0.289-0.705,0.634-0.918c0.307-0.35,0.614-0.7,0.92-1.05c0,0,0.056,0.057,0.056,0.057
		c0.711-0.73,1.548-0.841,2.476-0.506c0.163,0.156,0.326,0.314,0.489,0.471c0.004,0.348,0.008,0.696,0.012,1.045
		C76.334,82.691,75.649,83.331,74.964,83.971z"/>
	<path fill="#FFFFFF" d="M31.998,78.988c-2.686-0.304-4.023-2.633-6.002-3.998C29.062,74.724,30.565,76.804,31.998,78.988z"/>
	<path fill="#FFFFFF" d="M72.914,82.97c0.022,0.328,0.035,0.656,0.038,0.985c-0.32,0.025-0.64,0.037-0.961,0.035
		c-2.672-0.006-5.345-0.011-8.017-0.017c0.337-0.33,0.675-0.659,1.012-0.989C67.628,82.203,70.27,82.228,72.914,82.97z"/>
	<path fill="#FFFFFF" d="M72.914,82.97c-2.642,0.005-5.285,0.009-7.927,0.014c2.496-1.981,5.389-0.589,8.077-0.949
		C73.02,82.348,72.97,82.659,72.914,82.97z"/>
	<path fill="#FFFFFF" d="M9.001,30.995c0.999,0,1.997-0.001,2.996-0.001c0.571,1.118-0.398,1.468-0.998,2.001
		c-0.807,0.427-0.98,1.174-1.005,1.995c-0.332,0.003-0.665,0.004-0.997,0.003c-0.001-1.002-0.002-2.004-0.003-3.006
		C8.993,31.656,8.996,31.325,9.001,30.995z"/>
	<path fill="#FFFFFF" d="M50.993,67.003c-0.664-0.335-1.328-0.669-1.992-1.004c-5.658,2.122-9.796-1.069-14.006-4.007
		c-2.67-1.97-4.565-1.339-5.761,1.702c-2.154,5.472-2.934,5.656-7.269,1.784c-0.611-0.546-1.31-0.993-1.968-1.485
		c-4.708-2.341-5.025-4.64-0.937-7.664c1.056-0.781,2.179-1.431,2.922-2.547c0.647-0.996,1.108-2.138,2.17-2.818
		c1.976,0.118,2.219,1.496,2.225,3.051c-0.676,1.778-2.065,3.017-3.47,4.14c-2.058,1.644-2.091,2.909-0.002,4.619
		c2.012,1.646,3.104,1.212,4.125-0.953c1.486-3.148,4.425-3.046,7.28-3.064c4.024,1.013,8.04,2.22,12.183,0.516
		c1.143,0.143,2.214,0.518,3.237,1.032c1.134,1.047,2.59,1.24,4.028,1.489c0.402,1.527,0.693,2.651,2.926,2.822
		c3.039,0.233,3.102,0.78,2.243,2.938C56.29,67.169,53.576,68.024,50.993,67.003z"/>
	<path fill="#FFFFFF" d="M13.995,39.997c-2.536-1.377-3.816-3.171-1.991-5.996c0.547-0.565,1.162-0.613,1.83-0.242
		c0.607,0.586,0.309,1.605,1.01,2.14c0.129,0.098,0.38,0.002,0.387-0.133c0.047-0.955-0.941-1.221-1.309-1.913
		c0.045-2.206,1.873-2.446,3.354-2.832c1.791-0.467,3.316-1.238,4.542-2.614c0.647-0.711,1.342-1.354,2.288-1.65
		c0.508-0.059,0.94,0.089,1.287,0.471c1.114,2.514-0.732,4.123-1.811,5.971c-0.249,0.418-0.525,0.819-0.802,1.216
		c-0.697,4.187-0.678,8.452-1.469,12.626c-0.197,1.654-0.56,3.212-2.31,3.953c-0.335-0.334-0.669-0.667-1.004-1.001
		c0.001-0.666,0.002-1.332,0.003-1.998C18.967,44.176,17.253,41.7,13.995,39.997z"/>
	<path fill="#FFFFFF" d="M22.996,53.994c-0.889,0.943-1.614,2.183-2.695,2.775c-4.235,2.323-4.045,4.654-0.306,7.224
		c-2.802-0.484-6.113-0.049-6.07-4.597c0.025-2.646,0.282-4.344,3.515-4.205c1.449,0.062,2.935-0.554,3.558-2.196
		C22.086,52.484,22.614,53.094,22.996,53.994z"/>
	<path fill="#FFFFFF" d="M34.994,61.993c4.826,0.785,8.859,4.342,14.006,4.007c-0.332,0.334-0.664,0.668-0.997,1.002
		c-1.922,1.65-3.964,1.109-5.955,0.232c-3.124-1.376-6.63-1.734-9.561-3.616c-0.167-0.206-0.33-0.416-0.493-0.625
		C32.715,61.817,33.895,62.027,34.994,61.993z"/>
	<path fill="#FFFFFF" d="M29.995,71.992c-0.667-0.667-1.334-1.333-2.001-1.999c4.763-0.374,3.213-4.355,4.001-7.001
		c0,0,0.001,0.001,0.001,0.001c2.665,1.799,3.241,4.394,2.21,7.18C33.574,71.883,32.133,73.091,29.995,71.992L29.995,71.992z"/>
	<path fill="#FFFFFF" d="M22.996,53.994c-0.666-0.333-1.332-0.666-1.999-0.999c-0.379-0.953-1.045-1.621-1.998-2.002
		c0.68-1.245,1.152-2.543,1.001-3.996c2.421-0.153,2.085,2.658,3.671,3.405c0.113,0.196,0.221,0.394,0.329,0.593
		C23.962,52.094,24.172,53.276,22.996,53.994z"/>
	<path fill="#FFFFFF" d="M13.995,39.997c0.611,0.223,1.49,0.824,1.792,0.611c3.454-2.446,3.311,0.043,3.185,2.307
		c-0.095,1.722,0.658,3.643-0.973,5.081c-0.333-0.333-0.665-0.666-0.998-0.999C18.181,43.725,14.08,42.723,13.995,39.997z"/>
	<path fill="#FFFFFF" d="M24.009,26.998c-0.339,0.663-0.678,1.327-1.017,1.99C19.177,29.911,15.83,32.114,12.002,33
		c-0.335-0.002-0.669-0.003-1.004-0.005c0.333-0.667,0.666-1.334,0.998-2.001c0,0,0,0,0,0c1.452-0.846,2.686-1.978,3.741-3.247
		c2.261-2.722,4.78-3.392,7.812-1.325C23.704,26.611,23.856,26.805,24.009,26.998z"/>
	<path fill="#FFFFFF" d="M12.002,33c3.552-1.643,6.364-5.311,10.989-4.012c-1.792,3.836-6.712,2.052-8.995,5.005l0,0
		c-0.664,0.002-1.329,0.004-1.993,0.007C12.003,33.667,12.002,33.334,12.002,33z"/>
	<path fill="#FFFFFF" d="M25.013,27.012c-0.335-0.005-0.67-0.009-1.005-0.014c0,0-0.033-0.013-0.033-0.013
		c-0.583-1.143,0.472-1.43,1.032-1.976c0.327-0.013,0.654-0.02,0.981-0.021c3.026-1.477,5.573-3.22,5.316-7.215
		c-0.115-1.782,1.304-2.86,2.685-3.783c0,0-0.004,0.001-0.004,0c1.341,0.008,2.681,0.016,4.022,0.023
		c-1.431,3.234-3.545,6.141-4.556,9.583C31.394,26.601,29.368,29.694,25.013,27.012z"/>
	<path fill="#FFFFFF" d="M25.008,25.008c-0.344,0.659-0.688,1.318-1.032,1.977c-5.476-3.093-7.934,2.828-11.979,4.009
		c1.058-1.223,2.127-2.437,3.171-3.672C17.879,24.116,20.809,21.874,25.008,25.008z"/>
	<path fill="#FFFFFF" d="M33.99,13.989c-1.458,1.488-1.624,3.474-1.908,5.351c-0.54,3.569-2.396,5.561-6.093,5.647
		c0.587-2.508,5.921-2.974,3.006-6.988C30.633,16.628,31.22,13.949,33.99,13.989z"/>
	<path fill="#FFFFFF" d="M87.984,47.992c2.809-2.349,1.098-6.701,3.993-9.012c0.001,1.002,0.003,2.004,0.004,3.006
		c0.001,0.27,0.002,0.54,0.004,0.81c1.268,9.36-0.928,18.214-3.935,26.947c-1.239,1.972-2.278,4.046-3.114,6.221
		c-0.313,0.007-0.626,0.019-0.939,0.035c-0.187-0.192-0.373-0.385-0.563-0.576c-0.667-1.241-0.68-2.572-0.541-3.924
		c1.9-6.33,4.116-12.6,3.575-19.387C86.341,50.527,87.205,49.266,87.984,47.992z"/>
	<path fill="#FFFFFF" d="M93.985,45.997c0.334,2.332,0.668,4.664,1.002,6.997c-0.898,3.285-0.45,6.84-2.003,9.994
		c-0.999,2.001-1.998,4.003-2.996,6.004c-0.191-0.207-0.381-0.414-0.573-0.62c-0.551-1.258-0.75-2.725-0.257-3.86
		c2.535-5.843,2.603-12.104,3.374-18.25C92.937,45.735,93.421,45.647,93.985,45.997z"/>
	<path fill="#FFFFFF" d="M84.936,75.964c-0.14-2.275,1.173-4.048,2.061-5.968c0.756-1.004,1.461-2.155,2.96-1.036
		c0,0,0.031,0.031,0.031,0.031C88.304,71.316,86.62,73.64,84.936,75.964z"/>
	<path fill="#FFFFFF" d="M92.985,62.987c0.358-3.393,0.518-6.826,2.003-9.994C94.945,56.45,95.456,60.017,92.985,62.987z"/>
	<path fill="#FFFFFF" d="M83.997,75.999c-0.686,0.967-1.373,1.933-2.059,2.9c-1.112,0.94-2.36,0.618-3.598,0.385
		c-1.199-2.269,1.216-2.255,2.044-3.249c1.174-0.521,2.352-1.05,3.563-0.086L83.997,75.999z"/>
	<path fill="#FFFFFF" d="M78.024,79.029c1.305-0.043,2.609-0.085,3.913-0.129c-1.282,1.55-3.205,1.598-4.931,2.106
		c0,0-0.064-0.079-0.064-0.079c-0.359-0.707,0.036-1.177,0.51-1.623C77.643,79.212,77.833,79.12,78.024,79.029z"/>
	<path fill="#FFFFFF" d="M93.985,45.997c-0.335,0.001-0.67,0.001-1.005,0.002c-2.656-0.756-1.375-2.494-0.999-4.007
		c0,0,0.001-0.005,0-0.005c0.329,0.001,0.657-0.006,0.986-0.021C92.843,43.426,93.297,44.741,93.985,45.997z"/>
	<path fill="#FFFFFF" d="M80.996,70.995c-1.436,1.531-2.87,3.064-4.308,4.593c-5.175,5.501-12.057,3.848-18.414,4.367
		c-0.796,0.065-1.809-0.052-1.804-1.146c0.007-1.59,1.948-1.627,2.522-2.818c0.136-0.493,0.37-1.114,0.8-1.197
		c3.617-0.697,5.88-2.527,5.899-6.5c0.002-0.402,0.675-0.674,1.17-0.807c0.469-0.022,0.912,0.078,1.329,0.294
		c0.514,0.46,0.911,1.017,1.289,1.584c2.963,1.104,9.031-2.677,8.718-6.074c-0.362-3.944,1.531-6.933,2.612-10.302
		c0.14-0.456,0.321-0.893,0.518-1.326c1.389-1.717,1.281-4.952,4.677-4.644c0.001,0.662,0.001,1.324,0.002,1.985
		c0.085,6.071-0.521,12.106-1.368,18.091C84.402,68.768,83.765,71.168,80.996,70.995z"/>
	<path fill="#FFFFFF" d="M86.004,47.019c-2.379,0.821-2.131,3.746-3.989,4.984c-1.217,1.318-2.565,1.785-4.164,0.643
		c-0.541-0.421-0.955-0.942-1.208-1.584c-0.076-0.448-0.002-0.876,0.195-1.285c0.597-0.667,1.372-1.084,2.14-1.512
		c0.954-0.516,1.924-1.004,2.817-1.628c0.163-0.571,2.426-1.32,0.196-1.617c-3.146-0.419-4.178-1.514-2.881-4.504
		c0.895-2.062,0.331-3.818-1.221-5.39c-1.392-1.411-2.734-2.892-2.996-5.001c-0.912-4.257-0.912-4.257-6.206-1.976
		c-1.003,0.165-2.012,0.174-3.024,0.185c-2.399-0.076-4.812,0.196-7.191-0.325c-0.81-0.26-1.47-0.709-1.866-1.488
		c-0.141-0.547-0.089-1.078,0.152-1.589c0.759-0.458,1.508-0.543,2.237,0.064c0.97-0.314,1.941-0.628,2.911-0.943
		c2.886,1.215,5.613,2.793,8.095-1.045c1.221-1.888,3.582-1.15,5.462-0.327c1.196,0.523,2.131,1.725,3.533,1.664
		c1.738-0.076,3.748-0.153,4.006,1.877c0.302,2.371-1.919,2.67-3.707,3.03c-0.438-0.031-0.874-0.114-1.294-0.273
		c0.245,0.36,0.512,0.703,0.79,1.045c0.312,0.343,0.596,0.7,0.884,1.059c3.46,3.146,8.05,5.45,8.035,11.129
		c-0.003,1.333-0.062,2.599-0.722,3.781C86.66,46.334,86.332,46.677,86.004,47.019z"/>
	<path fill="#FFFFFF" d="M77.987,31.007c-0.015-0.331-0.027-0.663-0.035-0.994c1.481-0.981,3.142-0.27,4.549-0.504
		c-1.401-0.287-3.074,0.461-4.549-0.53c0.547-0.32,1.06-0.806,1.647-0.926c1.119-0.229,2.847-0.179,2.686-1.514
		c-0.244-2.018-1.867-1.105-3.106-0.742c-1.278,0.374-2.171-0.381-3.059-1.172c-2.279-2.03-4.182-2.263-6.797,0.087
		c-2.103,1.89-5.243,2.824-7.418-0.658c2.16-1.081,5.47,2.471,6.538-0.688c1.325-3.918-3.547-1.257-4.537-3.169
		c-0.364-0.703-0.614-1.464-0.915-2.199c2.199,0.882,4.927,4.945,5.993-0.996c0.336-0.001,0.671-0.003,1.007-0.004
		c0.665,1.004,1.331,2.009,1.996,3.013c0.895,2.311,3.671,0.855,4.921,2.454c1.326,0.439,2.545,1.701,4.08,0.528
		c0.998,0.669,1.997,1.338,2.995,2.008c2.227,1.801,2.187,4.583,3.02,6.987c0.448,0.473,0.405,0.896-0.128,1.27
		C83.729,33.246,80.845,32.178,77.987,31.007z"/>
	<path fill="#FFFFFF" d="M80.996,70.995c2.846-1.723,3.092-4.505,2.994-7.409c-0.169-4.979-0.256-9.942,2.016-14.582
		c0.66-0.337,1.319-0.675,1.979-1.012c0.293,8.268-0.893,16.288-4.005,23.987c-0.573,1.925-1.756,3.483-3.009,4.999
		c-0.982,0.683-1.964,1.366-2.946,2.05c0,0-0.009-0.008-0.009-0.008c-0.379,0.392-0.73,0.369-1.055-0.069
		C77.407,75.843,81.071,74.368,80.996,70.995z"/>
	<path fill="#FFFFFF" d="M77.987,31.007c3.211-0.288,6.258,0.16,8.996,1.998c1.096,1.141-0.125,2.863,1.001,3.996
		c-0.829,2.942,2.408,6.333-0.996,8.99C88.739,38.143,82.137,35.312,77.987,31.007z"/>
	<path fill="#FFFFFF" d="M87.984,37.002c-1.446-1.054-0.862-2.616-1.001-3.996c0.007-0.34,0.014-0.679,0.021-1.019
		C88.642,33.403,87.766,35.309,87.984,37.002z"/>
	<path fill="#FFFFFF" d="M76.99,22.998c-1.368-1.496-4.565,0.068-5.002-2.987c1.439,1.237,3.701,0.401,5.002,1.987
		c0.256,0.222,0.341,0.445,0.256,0.667C77.161,22.887,77.075,22.998,76.99,22.998z"/>
	<path fill="#FFFFFF" d="M76.99,22.998c0-0.333,0-0.667,0-1c1.333,0.332,2.666,0.663,3.999,0.995
		C79.658,24.405,78.325,24.404,76.99,22.998z"/>
	<path fill="#FFFFFF" d="M37.993,84.991c1.668-0.333,3.336-0.666,5.005-0.999C41.69,86.13,40.091,86.81,37.993,84.991z"/>
	<path fill="#FFFFFF" d="M32.983,22.988c0.47-3.666,1.498-7.02,5.025-8.975c0.329-0.004,0.658-0.008,0.987-0.014
		c5.386-0.278,8.646,4.057,13.011,5.995c-1.44,1.518-3.274,1.275-5.079,1.15c-1.647-0.228-2.945-1.122-4.046-2.297
		c-1.297-1.384-2.624-1.667-4.104-0.325c-1.881,1.209-2.697,3.453-4.547,4.692C33.779,23.332,33.362,23.265,32.983,22.988z"/>
	<path fill="#FFFFFF" d="M45.987,20c2.006-0.002,4.012-0.004,6.018-0.006c1.751,0.442,1.823,3.098,3.974,3.012
		c1.005,0.664,2.01,1.327,3.015,1.991c-0.667,0.003-1.334,0.006-2.001,0.009C53.315,25.815,47.643,23.236,45.987,20z"/>
	<path fill="#FFFFFF" d="M50.992,14.003c-0.564,1.335-1.58,1.991-3.019,2.016c-0.425-0.424-1.272-1.142-1.212-1.23
		C47.881,13.176,49.575,14.332,50.992,14.003z"/>
	<path fill="#FFFFFF" d="M58.992,15.995c-0.997-0.067-2.101-0.182-2.383-1.285c-0.234-0.915,0.632-1.365,1.383-1.712
		C58.325,13.997,58.659,14.996,58.992,15.995z"/>
	<path fill="#FFFFFF" d="M29.995,71.992c6.46-1.712,2.586-5.721,2.001-8.999c5.616,0.217,10.28,4.233,16.007,4.008
		c-0.052,2.659-0.122,5.269,1.292,7.746c0.738,1.293,2.417,2.819,0.706,4.427c-1.479,1.391-3.601,1.2-5.211,0.52
		C39.664,77.532,33.865,76.582,29.995,71.992z"/>
	<path fill="#FFFFFF" d="M67.959,67.99c-0.459,0.158-1.331,0.402-1.319,0.461c1.364,6.511-3.614,6.547-7.648,7.54
		c-0.666,0-1.333,0-1.999,0c0.258-2.445,4.035-3.885,1.994-6.986l0.006-0.018c1.238-1.322,3.277-1.307,4.474-2.7
		c1.098-0.899,2.152-1.874,3.657-2.042c1.07,0.011,1.941,0.341,2.317,1.456C69.543,66.849,69.068,67.625,67.959,67.99z"/>
	<path fill="#FFFFFF" d="M58.988,69.005c0.519,1.77,2.592,1.758,3.841,2.831c-2.162,1.54-3.999,2.847-5.835,4.155
		c-2.798,1.71-4.886,0.782-5.795-2.085c-0.983-3.102,0.83-4.583,3.801-4.904c0.948,1.348-1.309,2.613-0.116,4.021
		c2.96-0.192,1.242-2.785,2.102-4.022C57.653,69.002,58.321,69.003,58.988,69.005z"/>
	<path fill="#FFFFFF" d="M56.986,69c0.868,1.678,3.329,3.372-0.054,5.006c-1.312,0.634-2.674,1.55-4,0.189
		c-1.595-1.636,0.127-2.535,0.952-3.616c0.39-0.512,0.745-1.051,1.116-1.578C55.662,69.001,56.324,69,56.986,69z"/>
	<path fill="#FFFFFF" d="M63.996,66.997c-1.009,2.32-3.073,1.986-5.003,1.99c-2.238-2.391-5.76,0.397-8.001-1.984
		c3.002-0.011,6.004-0.022,9.005-0.034c0.353-0.369,0.772-0.63,1.259-0.788C62.306,65.996,63.263,66.122,63.996,66.997z"/>
	<path fill="#FFFFFF" d="M76.96,78.951c0.351,0.023,0.703,0.046,1.054,0.069c-0.357,0.636-0.714,1.273-1.072,1.908
		c-0.968,0.037-1.935,0.075-2.902,0.113C74.483,79.603,75.545,79.031,76.96,78.951z"/>
	<path fill="#FFFFFF" d="M60.983,66.977c-0.328,0-0.657-0.002-0.985-0.007c-2.616-1.413-5.307-2.428-8.13-1.261
		c-1.427-2.11,3.589-1.434,1.135-3.725c-0.083-0.229-0.165-0.457-0.248-0.686c0.139-0.2,0.277-0.399,0.414-0.599
		c0.444-0.2,0.911-0.277,1.396-0.237c1.827,0.307,2.778,2.29,5.012,2.511c1.375-4.337,0.631-10.822,8.352-9.691
		c0.903,0.313,1.714,0.775,2.369,1.485c1.404,0.78-0.068,5.22,3.722,2.919c0.05-1.19-1.085-2.697,0.897-3.357
		c2.893-0.11,3.175,1.857,3.213,4.016c-0.206,3.718-2.635,4.368-5.79,4.522c-2.878,0.141-4.929-0.19-4.919-3.721
		c0.002-0.832-0.703-1.6-1.691-1.368c-1.554,0.364-1.588,1.807-1.154,2.784C66.296,64.433,64.272,66.015,60.983,66.977z"/>
	<path fill="#FFFFFF" d="M33.996,59.992c-2.86-0.115-5.648-0.316-6.463,3.56c-0.241,1.146-1.583,2.71-2.918,1.973
		c-1.966-1.086-3.862-2.615-5.218-4.391c-1.111-1.455,0.893-2.102,1.804-2.915c1.589-1.418,3.194-2.819,4.792-4.227
		c0.374-0.306,0.778-0.37,1.219-0.16c1.144,0.978,1.631,2.611,3.184,3.181c1.171,0.581,2.501,0.845,3.501,1.762
		C34.184,59.16,34.204,59.567,33.996,59.992z"/>
	<path fill="#FFFFFF" d="M33.996,59.992c0-0.333,0-0.667-0.001-1c0.112-0.2,0.225-0.401,0.333-0.605
		c1.547-1.479,3.204-2.658,5.525-2.013c0.414,0.154,0.806,0.362,1.177,0.598c0.182,0.111,0.361,0.237,0.544,0.345
		c1.28,1.007,2.849,0.552,4.277,0.826c0.437,0.118,0.827,0.323,1.177,0.609c0.224,0.422,0.221,0.836-0.038,1.242
		C42.659,62.912,38.327,61.197,33.996,59.992z"/>
	<path fill="#FFFFFF" d="M26.996,53.993c-0.334,0-0.669-0.001-1.003-0.001c-0.664-0.999-1.328-1.998-1.991-2.997
		c0,0-0.004-0.002-0.004-0.002c-1.432-2.898-0.348-4.287,2.697-4.506c2.183,1,2.482,2.824,2.155,4.925
		C28.555,52.502,28.02,53.424,26.996,53.993z"/>
	<path fill="#FFFFFF" d="M46.991,59.995c0-0.333,0-0.666,0-1c1.608-0.671,3.048-1.92,4.992-1.457
		c0.66,0.307,1.145,0.791,1.465,1.443c0.212,0.726,0.117,1.39-0.4,1.968l-0.061,0.046c-0.997,0.198-1.994,0.218-2.991,0.002
		C48.896,60.959,47.714,61.165,46.991,59.995z"/>
	<path fill="#FFFFFF" d="M49.996,60.996c0.997-0.631,1.994-0.631,2.991-0.002c0.006,0.33,0.011,0.66,0.015,0.989
		C51.354,63.623,50.402,63.14,49.996,60.996z"/>
	<path fill="#FFFFFF" d="M26.994,46.99c-2.589,0.144-3.089,1.853-2.996,4.004c-3.439,0.775-2.493-2.835-3.996-3.996
		c1.2-4.59,0.192-9.495,1.997-13.999c1.736,1.712,1.116,3.935,1.216,5.966c0.102,2.07,0.411,3.874,2.769,4.497
		c0.638,0.363,1.131,0.863,1.455,1.525C27.644,45.732,27.556,46.414,26.994,46.99z"/>
	<path fill="#FFFFFF" d="M32.983,22.988c0.338,0.002,0.675,0.004,1.013,0.007c0.664,1.091,0.261,2.236,0.184,3.368
		c-0.155,1.147-0.432,2.246-1.296,3.096c-1.203,0.945-2.487,1.786-3.668,2.767c-1.413,0.577-2.964,0.608-4.401,1.104
		c-0.432,0.099-0.866,0.105-1.303,0.032c-0.177-0.129-0.353-0.26-0.529-0.39c0.051-2.2,2.617-3.543,2.031-5.96
		C28.91,28.127,30.749,25.166,32.983,22.988z"/>
	<path fill="#FFFFFF" d="M25.995,43.996c-3.13,1.181-3.74-1.018-3.934-3.201c-0.229-2.58-0.06-5.196-0.064-7.796
		c0.328-0.008,0.656-0.017,0.984-0.027c0,0,0.021,0.035,0.021,0.035c0.319,0.324,0.577,0.692,0.789,1.094
		c0.3,0.847,0.348,1.735,0.43,2.615c0.151,1.712,0.747,3.29,1.495,4.821C26.068,42.327,26.51,43.11,25.995,43.996z"/>
	<path fill="#FFFFFF" d="M13.996,33.993c1.319,0.245,3.236-0.694,3.714,1.28c0.403,1.665-1.319,1.975-2.445,2.476
		c-0.784,0.349-1.686,0.212-2.242-0.443C11.731,35.786,13.848,35.159,13.996,33.993C13.997,33.994,13.996,33.993,13.996,33.993z"/>
	<path fill="#FFFFFF" d="M91.981,41.992c0.141,1.383-0.452,2.95,1,4.007c1.602,7.998-3.078,15.169-3.023,22.963
		c-0.987,0.345-1.974,0.69-2.961,1.036c1.959-8.34,4.799-16.54,4.007-25.32C90.912,43.664,91.086,42.679,91.981,41.992z"/>
	<path fill="#FFFFFF" d="M80.97,76.979c0.254-2.118,1.724-3.502,3.009-4.999c-0.011,1.323-0.021,2.647-0.032,3.97
		C82.954,76.292,81.962,76.636,80.97,76.979z"/>
	<path fill="#FFFFFF" d="M60.983,66.977c2.348-1.629,4.279-3.104,2.211-6.56c-0.952-1.591-0.239-4.048,2.5-4.322
		c1.953-0.195,3.002,0.799,3.284,2.813c0.143,1.026-1.06,3.664,0.913,2.796c2.336-1.028,6.514,2.43,7.109-2.702
		c1.251-2.345,0.897-6.02,4.985-6.012c-0.717,3.742-3.314,6.774-2.327,11.305c0.853,3.919-8.149,7.976-11.665,5.696
		c1.378-0.623,1.969-1.269,0.06-1.991c0,0-0.091-0.011-0.091-0.011c0.347-0.663,0.695-1.327,1.042-1.99
		c0.25-0.359,0.891-0.747,0.251-1.158c-0.714-0.458-1.552-0.534-2.267,0.142c-0.997,0.671-1.993,1.342-2.99,2.013
		C62.992,66.99,61.987,66.983,60.983,66.977z"/>
	<path fill="#FFFFFF" d="M81.983,52.99c-2.8,1.06-3.001,4.275-4.985,6.012c0.057-2.12,0.209-4.311-2.985-4.015
		c-1.105-0.339-1.616-1.151-1.79-2.237c0.574-2.668,1.159-5.329,4.766-2.758c0,0.333,0,0.666,0,0.998
		c-0.236,0.903,0.095,1.24,1.001,1.003c1.338,0.978,2.681,0.021,4.022,0.01C82,52.332,81.99,52.661,81.983,52.99z"/>
	<path fill="#FFFFFF" d="M68.051,68.001c1.78,0.239,3.766-0.585,5.788,1.007c-2.069,1.533-4.05,0.754-5.848,0.984
		C68.011,69.328,68.031,68.664,68.051,68.001z"/>
	<path fill="#FFFFFF" d="M56.989,26.004c0.335,0.331,0.669,0.663,1.004,0.994c0.332,0.331,0.519,0.73,0.567,1.196
		c-0.465,1.738-1.035,3.456-1.086,5.285c-0.527,1.2-1.529,1.814-2.708,2.21c-1.376,0.477-3.819-1.225-3.865,2.056
		c-0.012,0.827-0.909,1.759-2.176,1.232c-0.507-0.598-0.741-1.301-0.833-2.064c1.423-4.221-0.539-8.371-0.276-12.565
		c1.14-1.597,2.71-1.484,3.729-0.251C52.929,26.014,55.126,25.356,56.989,26.004z"/>
	<path fill="#FFFFFF" d="M75.983,30.009c0.049,2.312,1.939,3.393,3.317,4.743c1.619,1.587,2.399,3.583,1.381,5.396
		c-2.767,4.926-0.178,4.128,2.996,3.124c0.538-0.17,1.204,0.067,2.066,0.136c-0.462,2.467-2.121,3.517-3.752,4.59
		c-1.874-1.286-5.642,1.152-6.035-3.067c1.572-5.639,0.516-10.517-4.144-14.36c-0.186-0.457-0.211-0.927-0.107-1.407
		c1.033-1.161,2.133-0.785,3.244-0.142C75.301,29.34,75.646,29.67,75.983,30.009z"/>
	<path fill="#FFFFFF" d="M56.989,26.004c-2.419,1.062-4.853,2.499-6.262-1.42c-0.166-0.462-1.793-0.399-2.743-0.58
		c-1.216,0.667-2.173-0.01-3.15-0.597c-0.341-0.295-0.646-0.628-0.921-0.984c-1.298-2.408-3.573-3.022-6.043-3.284
		c-0.324-0.42-0.265-0.797,0.124-1.138c4.213-5.524,5.309,1.415,7.994,1.999c4.006,0.925,6.54,5.089,11.006,5.005
		C56.993,25.338,56.992,25.671,56.989,26.004z"/>
	<path fill="#FFFFFF" d="M75.001,29.99c-1.004-0.331-2.008-0.662-3.012-0.993c-1.361,1.395-3.061,2.065-4.935,1.688
		c-4.057-0.817-4.816,1.368-4.78,4.718c0.028,2.61,0.397,5.273-0.547,7.834c-0.257,0.514-0.664,0.83-1.223,0.958
		c-1.522-0.689-1.632-2.1-1.803-3.484c-0.181-2.905,0.134-5.829-0.452-8.723c-0.404-1.997,0.243-3.512,2.334-4.161
		c1.719-0.823,3.74,0.32,5.413-0.823c0.996,0,1.991,0,2.987-0.001c1.226,1.053,2.468-0.157,3.693,0.026
		C74.363,27.281,76.073,27.555,75.001,29.99z"/>
	<path fill="#FFFFFF" d="M75.001,29.99c-0.631-3.766-4.682-0.64-6.018-2.986c2.287,0.492,1.826-4.314,4.819-2.491
		c2.121,1.292,2.335,3.314,2.181,5.495C75.655,30.001,75.328,29.995,75.001,29.99z"/>
	<path fill="#FFFFFF" d="M76.984,44.983c0.311,2.198,1.494,2.324,3.131,1.3c2.702-1.689,1.527,0.841,1.874,1.714
		c-0.992,0.34-1.984,0.681-2.977,1.021c-2.208,0.484-4.305-0.469-6.47-0.496c-0.404-0.287-0.668-0.677-0.789-1.159
		c0.785-1.69,2.754-1.6,3.975-2.639C76.195,44.573,76.617,44.649,76.984,44.983z"/>
	<path fill="#FFFFFF" d="M71.993,47.992c2.435-0.309,4.719,0.422,7.021,1.026c-0.452,0.787-1.2,0.959-2.023,0.974
		c-2.987-1.203-3.516,0.87-4.001,3.002c-0.374,0.318-0.776,0.343-1.204,0.116c-0.78-0.884-1.052-1.969-1.23-3.094
		c-0.005-0.717,0.274-1.305,0.813-1.774C71.575,48.158,71.784,48.075,71.993,47.992z"/>
	<path fill="#FFFFFF" d="M77.992,51.993c-0.161,1.046-0.446,2.038-1.807,1.749c-0.377-0.08-0.867-0.57-0.946-0.947
		c-0.287-1.362,0.706-1.644,1.752-1.805C77.324,51.325,77.658,51.659,77.992,51.993z"/>
	<path fill="#FFFFFF" d="M65.996,27.005c-1.407,1.649-3.319,0.749-5.004,0.993c-1,0.664-2,0.752-2.999-0.004
		c0-0.332,0-0.664-0.001-0.996C60.661,27,63.329,27.003,65.996,27.005z"/>
	<path fill="#FFFFFF" d="M77.953,28.98c1.376,0.076,2.752,0.151,4.554,0.25c-1.726,1.186-3.191,0.582-4.554,0.783
		C77.279,29.668,77.278,29.324,77.953,28.98z"/>
	<path fill="#FFFFFF" d="M37.993,18.001c0.002,0.334,0.003,0.668,0.005,1.002c0.899,2.051-0.367,3.783-0.821,5.64
		c-0.283,0.72-0.675,1.361-1.329,1.808c-1.045,0.45-1.999,0.321-2.849-0.454c0.332-1.001,0.665-2.002,0.997-3.003
		C34.946,21.024,35.81,18.984,37.993,18.001z"/>
	<path fill="#FFFFFF" d="M66.986,64.984c1.667-1.594,3.498-1.095,5.522-0.474c-0.549,2.254-2.342,1.142-3.506,1.489
		C68.565,65.194,67.813,65.016,66.986,64.984z"/>
	<path fill="#FFFFFF" d="M71.985,47.002c0.002,0.33,0.005,0.66,0.008,0.99c0,0-0.011,0.009-0.011,0.009
		c-0.904,0.657-1.925,0.956-3.024,1.135c-1.588,0.259-0.22,1.047-0.217,1.604c0.31,1.225,0.271,2.36-0.755,3.263
		c-5.036-0.633-6.176,2.805-6.829,6.637c-0.238,1.395,2.056,3.256-0.597,4.178c-1.876,0.652-3.034-0.851-4.251-1.991
		c-0.721-0.675-1.543-1.242-2.319-1.857c-0.368-1.9,1.179-1.675,2.174-1.812c4.011-0.551,4.069-3.92,4.59-6.694
		c0.327-1.738-1.217-2.655-2.898-2.567c-2.146,0.112-3.882,0.955-4.015,3.47c-0.101,1.904,0.895,3.963-0.842,5.621
		c-0.335-0.331-0.67-0.662-1.005-0.993c-2.512-1.836-5.462,1.359-7.957-0.69c-0.292-0.395-0.398-0.836-0.324-1.321
		c2.789-2.643,4.114-6.006,4.753-9.705c0.288-0.375,0.661-0.619,1.12-0.724c3.395-3.472,7.7-0.266,11.396-1.551l0.017-0.013
		C65.234,42.9,68.429,45.609,71.985,47.002z"/>
	<path fill="#FFFFFF" d="M52.997,58.986c-0.096-1.469,0.149-3.072-0.364-4.377c-0.889-2.262-0.479-4.092,1.558-5.003
		c1.924-0.861,3.929-2.492,6.37-0.583c2.159,1.689,1.493,3.452,1.178,5.642c-0.677,4.708-3.648,6.078-7.751,6.303
		c-0.314,0.004-0.628-0.002-0.941-0.02C53.032,60.294,53.015,59.64,52.997,58.986z"/>
	<path fill="#FFFFFF" d="M67.985,54.002c0.003-1.335,0.005-2.671,0.008-4.006c0.353-0.259,0.739-0.308,1.152-0.179
		c1.135,0.889,1.779,2.222,2.847,3.175c0.332,0.001,0.665,0.002,0.997,0.002c0.341,0.664,0.683,1.329,1.024,1.993
		c0.659,1.002,1.318,2.004,1.976,3.006c-3.951,1.815-4.62,1.482-6.011-2.992C69.158,54.98,68.416,54.801,67.985,54.002z"/>
	<path fill="#FFFFFF" d="M69.979,55.001c1.415,2.18,2.767,4.486,6.011,2.992c-0.451,2.741-2.625,2.162-4.206,1.848
		C68.9,59.269,70.391,56.705,69.979,55.001z"/>
	<path fill="#FFFFFF" d="M26.996,53.993c0.021-0.824,0.196-1.57,1.001-2c0.327-0.321,0.72-0.492,1.172-0.524
		c3.194,0.121,2.187-2.294,2.39-3.985c0.16-0.491,0.476-0.836,0.929-1.071c5.201-0.224,4.385,2.901,3.421,6.115
		c-1.122,2.732-4.401,3.14-5.913,5.464C27.623,57.69,27.344,55.815,26.996,53.993z"/>
	<path fill="#FFFFFF" d="M29.996,57.992c-0.363-1.124-1.633-2.655,0.699-2.89c1.795-0.181,2.866-1.426,4.302-2.108
		c2.098-0.704,3.942-0.541,5.222,1.533c-0.489,1.795-2.349,1.126-3.408,1.893c-1.047,0.736-1.925,1.662-2.817,2.572
		c0,0,0.001,0,0.001,0C32.54,59.145,31.242,58.674,29.996,57.992z"/>
	<path fill="#FFFFFF" d="M26.844,60.469c-0.095,1.281-0.727,2.168-2.027,2.339c-1.282,0.168-2.338-0.379-2.418-1.743
		c-0.084-1.43,1.076-1.88,2.275-1.997C25.708,58.967,26.634,59.203,26.844,60.469z"/>
	<path fill="#FFFFFF" d="M43.995,56.989c1.776-0.055,3.559,0.173,5.286-0.596c1.511-0.673,2.527-0.153,2.712,1.6
		c-1.8-0.333-2.969,2.49-5.001,1.001c-0.332-0.002-0.664-0.002-0.997-0.003c-1.476-1.289-3.543,0.383-5.001-0.997l0.002-0.003
		c-0.369-0.943,0.218-1.327,0.951-1.627C42.732,56.235,43.416,56.44,43.995,56.989z"/>
	<path fill="#FFFFFF" d="M33.994,58.991c0.005-1.441,0.673-2.44,2-2.999c1.516-0.395,3.251-1.664,3.999,1.003
		C37.567,56.378,36.211,58.977,33.994,58.991z"/>
	<path fill="#FFFFFF" d="M39.994,56.995c-1.048-1.469-2.618-0.858-3.999-1.003c1.051-1.462,2.619-0.856,4-0.999
		c1.647-0.316,2.299,0.366,2.004,1.998c-0.334,0.334-0.669,0.667-1.003,1.001C40.661,57.66,40.328,57.327,39.994,56.995z"/>
	<path fill="#FFFFFF" d="M40.994,57.995c1.685,0.24,3.6-0.668,5.001,0.997C44.374,58.43,42.159,60.843,40.994,57.995z"/>
	<path fill="#FFFFFF" d="M32.001,46.991c0,0.334-0.001,0.668-0.001,1.001c-0.9,1.41-1.76,2.851-3.005,4.003
		c-0.332,0-0.665-0.001-0.997-0.002c0.107-1.756-0.051-3.459-1.004-5.003c0.001-0.665,0.003-1.331,0.004-1.996
		c1.385-1.136,2.623-0.353,3.877,0.29C31.473,45.705,31.884,46.251,32.001,46.991z"/>
	<path fill="#FFFFFF" d="M30.984,45.996c-1.329-0.334-2.658-0.668-3.987-1.002c-0.334-0.333-0.668-0.665-1.002-0.998
		c-0.333-0.666-0.665-1.331-0.998-1.997c0.676-0.835,1.606-0.958,2.591-0.931c1.18,0.128,2.236,0.572,3.178,1.281
		c0.328,0.291,0.524,0.665,0.607,1.089C30.73,44.204,31.397,45.182,30.984,45.996z"/>
	<path fill="#FFFFFF" d="M30.993,42.991c-0.999-0.332-1.997-0.665-2.996-0.997c-1.776-2.804-1.501-6.52-4.002-9.002
		c1.463-1.356,3.099-1.839,4.999-0.995c0.874,0.469,0.811,1.717,1.846,2.171c1.557-1.458-0.341-3.727,1.16-5.17
		c1.171-0.722,0.962-1.902,0.997-3.002c0.996,0.001,1.992,0.001,2.988,0.002c2.864,3.056,1.733,6.741,0.438,9.603
		C35.225,38.251,33.68,41.184,30.993,42.991z"/>
	<path fill="#FFFFFF" d="M23.995,32.992c4.979,1.38,3.824,5.487,4.002,9.002c-1,0.002-1.999,0.003-2.999,0.005
		c-1.359-1.391-1.569-3.241-1.999-5.003c1.782-0.994,1.063-1.994,0.008-2.996c-0.002-0.331-0.004-0.663-0.004-0.994
		C23.333,33,23.664,32.995,23.995,32.992z"/>
	<path fill="#FFFFFF" d="M32.001,28.999c0.207,0.775,0.422,1.549,0.619,2.327c0.398,1.57,0.926,3.222-0.593,4.46
		c-0.558,0.454-1.734,0.926-2.138,0.656c-1.64-1.095-0.608-2.939-0.894-4.444C29.032,30.031,30.718,29.717,32.001,28.999z"/>
	<path fill="#FFFFFF" d="M23.007,34c1.668,0.162,3.173,0.837,2.757,2.719c-0.446,2.014-1.796,0.435-2.765,0.277
		C23.001,35.997,23.004,34.999,23.007,34z"/>
	<path fill="#FFFFFF" d="M67.635,59.244c-0.319,0.975-0.881,1.809-1.89,2.054c-1.038,0.252-1.456-0.609-1.567-1.408
		c-0.163-1.178,0.494-1.803,1.69-1.831C66.734,58.039,67.481,58.196,67.635,59.244z"/>
	<path fill="#FFFFFF" d="M60.98,44.002c-0.517,1.103-1.399,2.183-2.562,1.87c-2.888-0.778-5.828-2.567-7.533,1.686
		c-0.298-0.521-0.596-1.043-0.895-1.564c-4.641-3.004-4.857-4.517-0.999-7c1.375-2.271,1.957-5.731,6-3.999
		c2.859-1.239,3.95-0.086,3.773,2.779c-0.355,1.375-2.145,1.53-2.596,3.049c1.018-0.141,0.946-1.13,1.472-1.534
		c0.319-0.34,0.707-0.535,1.168-0.588c0.925,0.495,0.433,1.715,1.18,2.301C60.021,42.1,59.814,43.278,60.98,44.002z"/>
	<path fill="#FFFFFF" d="M48.993,38.994c-3.791,2.922-0.221,4.793,0.999,7c-0.335,0.001-0.669,0.002-1.004,0.003
		c-0.274,0.311-0.611,0.525-1.005,0.653c-1.215,0.338-2.274,1.094-3.53,1.338c-1.124,0.267-2.349,0.174-3.33,0.911
		c-1.671,1.255-2.308,2.417,0.151,3.596c1.416,0.679,3.244,1.224,2.722,3.494c0,0.333,0,0.667-0.001,1
		c-0.665,0.001-1.331,0.001-1.996,0.002c-0.384-0.951-1.05-1.619-2.004-1.998c-1.297-1.589-3.569-0.74-4.998-1.999
		c-0.129-2.436,2.555-6.275-2.996-6.003c-0.339-0.332-0.677-0.663-1.016-0.995c-0.075-0.669-1.095-1.343,0.011-2.005
		c0.367-0.333,0.791-0.416,1.262-0.29c4.607,1.887,8.374-0.749,12.333-2.306c0.432-1.318,0.794-2.665,1.797-3.702
		c0.757-0.633,1.527-1.226,2.596-0.703C48.986,37.658,48.989,38.326,48.993,38.994z"/>
	<path fill="#FFFFFF" d="M48.983,36.989c-0.663,0.336-1.325,0.673-1.988,1.009c-1.723-2.276,1.287-6.212-2.758-7.672
		c-1.173,0.437-0.111,4.508-3.21,2.04c-1.424-2.074-1.648-4.412-1.066-6.711c0.643-2.542,2.014-4.311,5.028-2.659
		c0.999,0.336,1.997,0.672,2.996,1.007C49.718,28.224,50.214,32.54,48.983,36.989z"/>
	<path fill="#FFFFFF" d="M59.989,41.001c-0.796-0.438-0.973-1.184-0.996-2.006c-0.843-1.94-0.248-4.36-2-5.997
		c-1.663-2.068,0.097-3.45,1.001-5.004c1,0.001,1.999,0.002,2.999,0.004c-1.407,1.271-2.019,2.457-1.424,4.665
		C60.275,35.29,59.897,38.209,59.989,41.001z"/>
	<path fill="#FFFFFF" d="M56.992,32.998c2.776,1.295,1.812,3.839,2,5.997c-0.333,0-0.667,0-1,0.001l0,0
		c0.079-2.142,0.188-4.307-2.999-4C55.659,34.329,56.326,33.664,56.992,32.998z"/>
	<path fill="#FFFFFF" d="M76.984,44.983c-0.33,0.006-0.661,0.012-0.991,0.015c-0.391,0.329-0.791,0.357-1.201,0.037
		c-0.202-0.422-0.292-0.869-0.279-1.335c0.055-0.827,0.268-1.645,0.242-2.476c-0.025-0.79,0.303-1.902-0.703-2.155
		c-0.836-0.211-1.291,0.896-2.001,1.298c-1.177,0.508-2.253,0.195-3.295-0.393c-0.756-0.453-1.321-1.132-1.974-1.695
		c-1.965-0.668-2.067,0.865-2.527,2.066c-0.423,1.104-0.132,2.788-2.069,2.798c-1.257-2.682-0.779-5.426-0.193-8.127
		c0.62-2.855,1.378-5.7,5.449-4.361c1.602,0.527,2.801-2.019,4.553-0.661C78.416,33.405,78.909,38.792,76.984,44.983z"/>
	<path fill="#FFFFFF" d="M74.995,44.998c0.333-0.001,0.665-0.001,0.998,0c-0.332,2.676-2.438,1.805-4.008,2.004
		c-4.098,0.584-7.282-2.166-10.987-3.014c-0.001-3.445,0.112-6.895-0.034-10.333c-0.149-3.511,1.758-5.125,4.787-4.398
		c2.267,0.544,4.166-0.458,6.238-0.26c0.002,0.332,0.004,0.663,0.006,0.995c-2.193,0.112-3.773,1.862-6.475,1.455
		c-2.272-0.342-2.466,3.462-3.198,5.462c-0.677,1.85-1.09,4.236,0.67,6.085C67.188,42.495,70.785,45.584,74.995,44.998z"/>
	<path fill="#FFFFFF" d="M44.988,22.996c-3.473-0.25-4.279,1.831-3.966,4.702c0.194,1.78,0.641,3.533,0.975,5.298
		c0.27,0.455,0.286,0.944,0.094,1.413c-2.75,6.728-2.753,6.727,3.895,7.576c-3.194,3.468-11.528,4.663-13.992,2.007
		c3.772-5.851,6.609-11.993,5.984-19.219c2.064-5.176,2.071-5.178,7.01-2.765C44.988,22.338,44.988,22.667,44.988,22.996z"/>
	<path fill="#FFFFFF" d="M44.988,22.009c-2.89-0.792-5.455-0.932-6,2.986c-1.358,0.745-2.147-0.211-2.992-1
		c0.667-1.664,1.334-3.328,2.002-4.993C41.747,16.704,43.256,19.614,44.988,22.009z"/>
	<path fill="#FFFFFF" d="M68.989,50.003c-0.332-0.006-0.664-0.008-0.997-0.008c-0.843,0.12-1.777,1.405-2.489,0.097
		c-0.468-0.86,0.425-1.644,1.169-1.753c1.749-0.256,3.537-0.243,5.309-0.339c-0.328,0.664-0.656,1.328-0.985,1.991
		C70.331,50.527,69.662,50.596,68.989,50.003z"/>
	<path fill="#FFFFFF" d="M68.989,50.003c0.669-0.004,1.338-0.007,2.007-0.011c1.17,0.722,0.961,1.901,0.995,2.999
		C70.086,52.905,69.085,51.909,68.989,50.003z"/>
	<path fill="#FFFFFF" d="M35.996,23.995c0.997,0.333,1.995,0.667,2.992,1c0.331,7.313-0.611,14.156-6.994,18.997
		c0,0-0.499,0-0.499,0s-0.499-0.002-0.499-0.002c-0.001-0.333-0.001-0.666-0.003-1c1.084-5.119,6.638-8.605,5.334-14.604
		c-0.17-0.784-0.23-1.591-0.341-2.388C35.989,25.331,35.992,24.663,35.996,23.995z"/>
	<path fill="#FFFFFF" d="M47.993,45.996c0.331,0,0.663,0,0.994,0c0.119,4.222-0.014,8.318-4.993,9.993
		c-0.488-1.152-1.693-1.525-2.476-2.301c-1.177-1.167-4.604,0.413-3.813-2.439c0.665-2.399,2.354-4.896,5.797-4.266
		c0.482,0.088,0.993,0.013,1.491,0.013c0.635,1.123-0.659,2.187-0.006,3.6C47.189,49.776,46.41,47.036,47.993,45.996z"/>
	<path fill="#FFFFFF" d="M28.994,51.995c-0.094-2.156,0.415-3.861,3.005-4.003c1.403,1.35,1.474,3.037,0.366,4.364
		C31.43,53.475,30.013,53.185,28.994,51.995z"/>
	<path fill="#FFFFFF" d="M57.992,38.996c-0.878,1.316,1.922,4.723-2.167,4.078c-1.115-0.176-1.952-1.555-1.286-3.166
		C55.346,37.955,56.538,38.145,57.992,38.996C57.992,38.995,57.992,38.996,57.992,38.996z"/>
	<path fill="#FFFFFF" d="M45.986,41.985c-2.157,1.022-4.752,2.123-6.289-0.221c-2.222-3.387,0.152-6.189,2.3-8.768
		c2.368-1.547-0.863-3.679,0.564-5.38c5.088,1.942,6.665,5.343,4.434,10.382C46.314,39.24,45.845,40.535,45.986,41.985z"/>
	<path fill="#FFFFFF" d="M47.993,45.996c-0.001,0.647-0.041,1.296,0.005,1.939c0.153,2.163-0.664,3.795-2.642,4.73
		c-0.805,0.38-1.711,0.211-2.074-0.628c-0.924-2.136,0.159-3.692,1.712-5.042C46.111,47.013,46.488,44.811,47.993,45.996z"/>
	<path fill="#FFFFFF" d="M67.99,36.998c0.021,0.823,0.196,1.569,1.001,2c0.754,1.073,1.369,2.564,3.001,0.998
		c0.266-1.716,0.827-3.579,2.884-3.155c1.486,0.306,1.096,2.205,1.1,3.496c0.003,1.291,0.313,2.703-0.982,3.66
		c-3.895,2.386-8.173,1.527-9.811-2.285C64.136,39.275,64.737,37.188,67.99,36.998z"/>
	<path fill="#FFFFFF" d="M67.99,36.998c-1.71,1.124-3.367,2.436-1.773,4.635c2.216,3.057,5.045,4.577,8.776,2.363
		c0.001,0.334,0.002,0.668,0.003,1.003c-4.6,2.922-8.115-0.661-12.003-2.003C63.092,36.927,63.896,35.963,67.99,36.998z"/>
	<path fill="#FFFFFF" d="M71.991,39.995c-0.144,1.025-0.447,2.036-1.74,1.775c-1.548-0.313-1.141-1.705-1.26-2.772
		C69.99,39.33,70.991,39.662,71.991,39.995z"/>
	<path fill="#FFFFFF" d="M44.998,38.46c-0.126,1.501-0.186,3.228-2.25,3.111c-1.214-0.069-1.421-1.248-0.944-2.292
		c0.615-1.347-0.734-3.87,1.765-3.967C45.398,35.241,44.831,37.23,44.998,38.46z"/>
</g>
</svg>
